<mxfile host="Electron" agent="Mozilla/5.0 (Windows NT 10.0; Win64; x64) AppleWebKit/537.36 (KHTML, like Gecko) draw.io/27.0.9 Chrome/134.0.6998.205 Electron/35.4.0 Safari/537.36" version="27.0.9">
  <diagram name="Page-1" id="dXdQ1gnVOpF5ffWtPepQ">
    <mxGraphModel dx="1042" dy="634" grid="1" gridSize="10" guides="1" tooltips="1" connect="1" arrows="1" fold="1" page="1" pageScale="1" pageWidth="850" pageHeight="1100" math="0" shadow="0">
      <root>
        <mxCell id="0" />
        <mxCell id="1" parent="0" />
        <mxCell id="EPaem3cKH4Gjk8MUm_rs-1" value="KORISNIK" style="rounded=0;whiteSpace=wrap;html=1;" parent="1" vertex="1">
          <mxGeometry x="350" y="80" width="120" height="60" as="geometry" />
        </mxCell>
        <mxCell id="EPaem3cKH4Gjk8MUm_rs-2" value="&lt;u&gt;ID&lt;/u&gt;" style="ellipse;whiteSpace=wrap;html=1;" parent="1" vertex="1">
          <mxGeometry x="280" y="20" width="60" height="30" as="geometry" />
        </mxCell>
        <mxCell id="EPaem3cKH4Gjk8MUm_rs-4" value="IME" style="ellipse;whiteSpace=wrap;html=1;" parent="1" vertex="1">
          <mxGeometry x="370" y="10" width="60" height="30" as="geometry" />
        </mxCell>
        <mxCell id="EPaem3cKH4Gjk8MUm_rs-5" value="PREZIME" style="ellipse;whiteSpace=wrap;html=1;" parent="1" vertex="1">
          <mxGeometry x="450" y="20" width="80" height="30" as="geometry" />
        </mxCell>
        <mxCell id="EPaem3cKH4Gjk8MUm_rs-7" value="EMAIL" style="ellipse;whiteSpace=wrap;html=1;" parent="1" vertex="1">
          <mxGeometry x="520" y="40" width="70" height="30" as="geometry" />
        </mxCell>
        <mxCell id="EPaem3cKH4Gjk8MUm_rs-8" value="PASSWORD" style="ellipse;whiteSpace=wrap;html=1;" parent="1" vertex="1">
          <mxGeometry x="540" y="80" width="90" height="35" as="geometry" />
        </mxCell>
        <mxCell id="EPaem3cKH4Gjk8MUm_rs-9" value="ULOGA" style="ellipse;whiteSpace=wrap;html=1;" parent="1" vertex="1">
          <mxGeometry x="580" y="125" width="70" height="30" as="geometry" />
        </mxCell>
        <mxCell id="EPaem3cKH4Gjk8MUm_rs-10" value="&lt;font style=&quot;font-size: 10px;&quot;&gt;user\administrator&lt;/font&gt;" style="text;html=1;align=center;verticalAlign=middle;whiteSpace=wrap;rounded=0;" parent="1" vertex="1">
          <mxGeometry x="540" y="155" width="160" height="30" as="geometry" />
        </mxCell>
        <mxCell id="EPaem3cKH4Gjk8MUm_rs-11" value="" style="endArrow=none;html=1;rounded=0;entryX=0;entryY=1;entryDx=0;entryDy=0;" parent="1" target="EPaem3cKH4Gjk8MUm_rs-5" edge="1">
          <mxGeometry width="50" height="50" relative="1" as="geometry">
            <mxPoint x="440" y="80" as="sourcePoint" />
            <mxPoint x="490" y="30" as="targetPoint" />
          </mxGeometry>
        </mxCell>
        <mxCell id="EPaem3cKH4Gjk8MUm_rs-12" value="" style="endArrow=none;html=1;rounded=0;entryX=0;entryY=1;entryDx=0;entryDy=0;exitX=1;exitY=0.25;exitDx=0;exitDy=0;" parent="1" source="EPaem3cKH4Gjk8MUm_rs-1" target="EPaem3cKH4Gjk8MUm_rs-7" edge="1">
          <mxGeometry width="50" height="50" relative="1" as="geometry">
            <mxPoint x="490" y="90" as="sourcePoint" />
            <mxPoint x="512" y="56" as="targetPoint" />
          </mxGeometry>
        </mxCell>
        <mxCell id="EPaem3cKH4Gjk8MUm_rs-13" value="" style="endArrow=none;html=1;rounded=0;entryX=0;entryY=1;entryDx=0;entryDy=0;exitX=1;exitY=0.75;exitDx=0;exitDy=0;" parent="1" source="EPaem3cKH4Gjk8MUm_rs-1" target="EPaem3cKH4Gjk8MUm_rs-8" edge="1">
          <mxGeometry width="50" height="50" relative="1" as="geometry">
            <mxPoint x="500" y="140" as="sourcePoint" />
            <mxPoint x="522" y="106" as="targetPoint" />
          </mxGeometry>
        </mxCell>
        <mxCell id="EPaem3cKH4Gjk8MUm_rs-14" value="" style="endArrow=none;html=1;rounded=0;entryX=0.5;entryY=1;entryDx=0;entryDy=0;exitX=0.18;exitY=0.003;exitDx=0;exitDy=0;exitPerimeter=0;" parent="1" source="EPaem3cKH4Gjk8MUm_rs-1" target="EPaem3cKH4Gjk8MUm_rs-2" edge="1">
          <mxGeometry width="50" height="50" relative="1" as="geometry">
            <mxPoint x="290" y="210" as="sourcePoint" />
            <mxPoint x="312" y="176" as="targetPoint" />
          </mxGeometry>
        </mxCell>
        <mxCell id="EPaem3cKH4Gjk8MUm_rs-15" value="" style="endArrow=none;html=1;rounded=0;" parent="1" source="EPaem3cKH4Gjk8MUm_rs-1" edge="1">
          <mxGeometry width="50" height="50" relative="1" as="geometry">
            <mxPoint x="320" y="210" as="sourcePoint" />
            <mxPoint x="350" y="110" as="targetPoint" />
          </mxGeometry>
        </mxCell>
        <mxCell id="EPaem3cKH4Gjk8MUm_rs-16" value="" style="endArrow=none;html=1;rounded=0;entryX=0.5;entryY=1;entryDx=0;entryDy=0;exitX=0.38;exitY=0.057;exitDx=0;exitDy=0;exitPerimeter=0;" parent="1" source="EPaem3cKH4Gjk8MUm_rs-1" target="EPaem3cKH4Gjk8MUm_rs-4" edge="1">
          <mxGeometry width="50" height="50" relative="1" as="geometry">
            <mxPoint x="390" y="70" as="sourcePoint" />
            <mxPoint x="412" y="36" as="targetPoint" />
          </mxGeometry>
        </mxCell>
        <mxCell id="EPaem3cKH4Gjk8MUm_rs-17" value="" style="endArrow=none;html=1;rounded=0;entryX=1;entryY=1;entryDx=0;entryDy=0;exitX=0;exitY=0.5;exitDx=0;exitDy=0;" parent="1" source="EPaem3cKH4Gjk8MUm_rs-9" target="EPaem3cKH4Gjk8MUm_rs-1" edge="1">
          <mxGeometry width="50" height="50" relative="1" as="geometry">
            <mxPoint x="400" y="240" as="sourcePoint" />
            <mxPoint x="450" y="190" as="targetPoint" />
          </mxGeometry>
        </mxCell>
        <mxCell id="EPaem3cKH4Gjk8MUm_rs-18" value="" style="endArrow=none;html=1;rounded=0;" parent="1" edge="1">
          <mxGeometry width="50" height="50" relative="1" as="geometry">
            <mxPoint x="250" y="97" as="sourcePoint" />
            <mxPoint x="350" y="97" as="targetPoint" />
          </mxGeometry>
        </mxCell>
        <mxCell id="EPaem3cKH4Gjk8MUm_rs-19" value="" style="endArrow=none;html=1;rounded=0;" parent="1" edge="1">
          <mxGeometry width="50" height="50" relative="1" as="geometry">
            <mxPoint x="250" y="110" as="sourcePoint" />
            <mxPoint x="350" y="109.5" as="targetPoint" />
          </mxGeometry>
        </mxCell>
        <mxCell id="EPaem3cKH4Gjk8MUm_rs-20" value="" style="rhombus;whiteSpace=wrap;html=1;" parent="1" vertex="1">
          <mxGeometry x="210" y="80" width="50" height="50" as="geometry" />
        </mxCell>
        <mxCell id="EPaem3cKH4Gjk8MUm_rs-22" value="" style="endArrow=classic;html=1;rounded=0;" parent="1" edge="1">
          <mxGeometry width="50" height="50" relative="1" as="geometry">
            <mxPoint x="210" y="104.5" as="sourcePoint" />
            <mxPoint x="130" y="104.5" as="targetPoint" />
          </mxGeometry>
        </mxCell>
        <mxCell id="EPaem3cKH4Gjk8MUm_rs-23" value="GRAD" style="rounded=0;whiteSpace=wrap;html=1;" parent="1" vertex="1">
          <mxGeometry x="10" y="75" width="120" height="60" as="geometry" />
        </mxCell>
        <mxCell id="EPaem3cKH4Gjk8MUm_rs-24" value="" style="rhombus;whiteSpace=wrap;html=1;rotation=0;" parent="1" vertex="1">
          <mxGeometry x="216.25" y="87.5" width="37.5" height="35" as="geometry" />
        </mxCell>
        <mxCell id="EPaem3cKH4Gjk8MUm_rs-25" value="&lt;u&gt;ID&lt;/u&gt;" style="ellipse;whiteSpace=wrap;html=1;" parent="1" vertex="1">
          <mxGeometry x="20" y="20" width="60" height="30" as="geometry" />
        </mxCell>
        <mxCell id="EPaem3cKH4Gjk8MUm_rs-26" value="IME" style="ellipse;whiteSpace=wrap;html=1;" parent="1" vertex="1">
          <mxGeometry x="90" y="20" width="60" height="30" as="geometry" />
        </mxCell>
        <mxCell id="EPaem3cKH4Gjk8MUm_rs-27" value="" style="endArrow=none;html=1;rounded=0;entryX=0.5;entryY=1;entryDx=0;entryDy=0;exitX=0.397;exitY=0.06;exitDx=0;exitDy=0;exitPerimeter=0;" parent="1" source="EPaem3cKH4Gjk8MUm_rs-23" target="EPaem3cKH4Gjk8MUm_rs-25" edge="1">
          <mxGeometry width="50" height="50" relative="1" as="geometry">
            <mxPoint x="60" y="70" as="sourcePoint" />
            <mxPoint x="-2" y="40" as="targetPoint" />
          </mxGeometry>
        </mxCell>
        <mxCell id="EPaem3cKH4Gjk8MUm_rs-28" value="" style="endArrow=none;html=1;rounded=0;entryX=0.5;entryY=1;entryDx=0;entryDy=0;exitX=0.893;exitY=0.073;exitDx=0;exitDy=0;exitPerimeter=0;" parent="1" source="EPaem3cKH4Gjk8MUm_rs-23" target="EPaem3cKH4Gjk8MUm_rs-26" edge="1">
          <mxGeometry width="50" height="50" relative="1" as="geometry">
            <mxPoint x="100" y="40" as="sourcePoint" />
            <mxPoint x="38" y="10" as="targetPoint" />
          </mxGeometry>
        </mxCell>
        <mxCell id="EPaem3cKH4Gjk8MUm_rs-30" value="ADRESA" style="ellipse;whiteSpace=wrap;html=1;" parent="1" vertex="1">
          <mxGeometry x="570" y="190" width="80" height="30" as="geometry" />
        </mxCell>
        <mxCell id="EPaem3cKH4Gjk8MUm_rs-31" value="" style="endArrow=none;html=1;rounded=0;entryX=0.75;entryY=1;entryDx=0;entryDy=0;" parent="1" source="EPaem3cKH4Gjk8MUm_rs-30" target="EPaem3cKH4Gjk8MUm_rs-1" edge="1">
          <mxGeometry width="50" height="50" relative="1" as="geometry">
            <mxPoint x="510" y="180" as="sourcePoint" />
            <mxPoint x="424" y="168" as="targetPoint" />
          </mxGeometry>
        </mxCell>
        <mxCell id="EPaem3cKH4Gjk8MUm_rs-32" value="PROIZVOD" style="rounded=0;whiteSpace=wrap;html=1;" parent="1" vertex="1">
          <mxGeometry x="120" y="350" width="120" height="60" as="geometry" />
        </mxCell>
        <mxCell id="EPaem3cKH4Gjk8MUm_rs-33" value="&lt;u&gt;ID&lt;/u&gt;" style="ellipse;whiteSpace=wrap;html=1;" parent="1" vertex="1">
          <mxGeometry x="50" y="310" width="60" height="30" as="geometry" />
        </mxCell>
        <mxCell id="EPaem3cKH4Gjk8MUm_rs-34" value="IME" style="ellipse;whiteSpace=wrap;html=1;" parent="1" vertex="1">
          <mxGeometry x="30" y="340" width="60" height="30" as="geometry" />
        </mxCell>
        <mxCell id="EPaem3cKH4Gjk8MUm_rs-35" value="CIJENA" style="ellipse;whiteSpace=wrap;html=1;" parent="1" vertex="1">
          <mxGeometry x="30" y="380" width="60" height="30" as="geometry" />
        </mxCell>
        <mxCell id="EPaem3cKH4Gjk8MUm_rs-36" value="SLIKA" style="ellipse;whiteSpace=wrap;html=1;" parent="1" vertex="1">
          <mxGeometry x="80" y="280" width="60" height="30" as="geometry" />
        </mxCell>
        <mxCell id="EPaem3cKH4Gjk8MUm_rs-37" value="OPIS" style="ellipse;whiteSpace=wrap;html=1;" parent="1" vertex="1">
          <mxGeometry x="40" y="420" width="60" height="30" as="geometry" />
        </mxCell>
        <mxCell id="EPaem3cKH4Gjk8MUm_rs-38" value="" style="endArrow=none;html=1;rounded=0;entryX=0.5;entryY=1;entryDx=0;entryDy=0;exitX=0.083;exitY=0.037;exitDx=0;exitDy=0;exitPerimeter=0;" parent="1" source="EPaem3cKH4Gjk8MUm_rs-32" edge="1">
          <mxGeometry width="50" height="50" relative="1" as="geometry">
            <mxPoint x="162" y="360" as="sourcePoint" />
            <mxPoint x="100" y="330" as="targetPoint" />
          </mxGeometry>
        </mxCell>
        <mxCell id="EPaem3cKH4Gjk8MUm_rs-40" value="" style="endArrow=none;html=1;rounded=0;entryX=1;entryY=0.5;entryDx=0;entryDy=0;" parent="1" target="EPaem3cKH4Gjk8MUm_rs-37" edge="1">
          <mxGeometry width="50" height="50" relative="1" as="geometry">
            <mxPoint x="120" y="410" as="sourcePoint" />
            <mxPoint x="150" y="330" as="targetPoint" />
            <Array as="points">
              <mxPoint x="100" y="430" />
            </Array>
          </mxGeometry>
        </mxCell>
        <mxCell id="EPaem3cKH4Gjk8MUm_rs-41" value="" style="endArrow=none;html=1;rounded=0;entryX=0.5;entryY=1;entryDx=0;entryDy=0;exitX=0.17;exitY=-0.003;exitDx=0;exitDy=0;exitPerimeter=0;" parent="1" source="EPaem3cKH4Gjk8MUm_rs-32" target="EPaem3cKH4Gjk8MUm_rs-36" edge="1">
          <mxGeometry width="50" height="50" relative="1" as="geometry">
            <mxPoint x="130" y="350" as="sourcePoint" />
            <mxPoint x="130" y="330" as="targetPoint" />
          </mxGeometry>
        </mxCell>
        <mxCell id="EPaem3cKH4Gjk8MUm_rs-42" value="" style="endArrow=none;html=1;rounded=0;entryX=1;entryY=0.5;entryDx=0;entryDy=0;exitX=0;exitY=0.5;exitDx=0;exitDy=0;" parent="1" source="EPaem3cKH4Gjk8MUm_rs-32" target="EPaem3cKH4Gjk8MUm_rs-34" edge="1">
          <mxGeometry width="50" height="50" relative="1" as="geometry">
            <mxPoint x="110" y="360" as="sourcePoint" />
            <mxPoint x="80" y="338" as="targetPoint" />
          </mxGeometry>
        </mxCell>
        <mxCell id="EPaem3cKH4Gjk8MUm_rs-43" value="" style="endArrow=none;html=1;rounded=0;exitX=0;exitY=0.75;exitDx=0;exitDy=0;" parent="1" source="EPaem3cKH4Gjk8MUm_rs-32" edge="1">
          <mxGeometry width="50" height="50" relative="1" as="geometry">
            <mxPoint x="110" y="420" as="sourcePoint" />
            <mxPoint x="90" y="395" as="targetPoint" />
          </mxGeometry>
        </mxCell>
        <mxCell id="EPaem3cKH4Gjk8MUm_rs-44" value="" style="endArrow=none;html=1;rounded=0;exitX=0.5;exitY=1;exitDx=0;exitDy=0;" parent="1" source="EPaem3cKH4Gjk8MUm_rs-32" edge="1">
          <mxGeometry width="50" height="50" relative="1" as="geometry">
            <mxPoint x="170" y="450" as="sourcePoint" />
            <mxPoint x="210" y="440" as="targetPoint" />
          </mxGeometry>
        </mxCell>
        <mxCell id="EPaem3cKH4Gjk8MUm_rs-45" value="" style="endArrow=none;html=1;rounded=0;exitX=0.423;exitY=1.023;exitDx=0;exitDy=0;exitPerimeter=0;" parent="1" source="EPaem3cKH4Gjk8MUm_rs-32" edge="1">
          <mxGeometry width="50" height="50" relative="1" as="geometry">
            <mxPoint x="180" y="440" as="sourcePoint" />
            <mxPoint x="200" y="440" as="targetPoint" />
          </mxGeometry>
        </mxCell>
        <mxCell id="EPaem3cKH4Gjk8MUm_rs-46" value="" style="rhombus;whiteSpace=wrap;html=1;rotation=-30;" parent="1" vertex="1">
          <mxGeometry x="190" y="430" width="50" height="50" as="geometry" />
        </mxCell>
        <mxCell id="EPaem3cKH4Gjk8MUm_rs-47" value="" style="rhombus;whiteSpace=wrap;html=1;rotation=-30;" parent="1" vertex="1">
          <mxGeometry x="198.75" y="437.5" width="32.5" height="35" as="geometry" />
        </mxCell>
        <mxCell id="EPaem3cKH4Gjk8MUm_rs-48" value="" style="endArrow=classic;html=1;rounded=0;exitX=0.5;exitY=1;exitDx=0;exitDy=0;entryX=0;entryY=0.5;entryDx=0;entryDy=0;" parent="1" source="EPaem3cKH4Gjk8MUm_rs-46" target="EPaem3cKH4Gjk8MUm_rs-49" edge="1">
          <mxGeometry width="50" height="50" relative="1" as="geometry">
            <mxPoint x="280" y="470" as="sourcePoint" />
            <mxPoint x="150" y="480" as="targetPoint" />
          </mxGeometry>
        </mxCell>
        <mxCell id="EPaem3cKH4Gjk8MUm_rs-49" value="TIP" style="rounded=0;whiteSpace=wrap;html=1;" parent="1" vertex="1">
          <mxGeometry x="310" y="450" width="100" height="40" as="geometry" />
        </mxCell>
        <mxCell id="EPaem3cKH4Gjk8MUm_rs-50" value="&lt;u&gt;ID&lt;/u&gt;" style="ellipse;whiteSpace=wrap;html=1;" parent="1" vertex="1">
          <mxGeometry x="300" y="407.5" width="60" height="30" as="geometry" />
        </mxCell>
        <mxCell id="EPaem3cKH4Gjk8MUm_rs-51" value="IME" style="ellipse;whiteSpace=wrap;html=1;" parent="1" vertex="1">
          <mxGeometry x="365" y="407.5" width="60" height="30" as="geometry" />
        </mxCell>
        <mxCell id="EPaem3cKH4Gjk8MUm_rs-52" value="" style="endArrow=none;html=1;rounded=0;entryX=0.5;entryY=1;entryDx=0;entryDy=0;" parent="1" target="EPaem3cKH4Gjk8MUm_rs-50" edge="1">
          <mxGeometry width="50" height="50" relative="1" as="geometry">
            <mxPoint x="340" y="450" as="sourcePoint" />
            <mxPoint x="390" y="400" as="targetPoint" />
            <Array as="points" />
          </mxGeometry>
        </mxCell>
        <mxCell id="EPaem3cKH4Gjk8MUm_rs-53" value="" style="endArrow=none;html=1;rounded=0;entryX=0.5;entryY=1;entryDx=0;entryDy=0;exitX=0.75;exitY=0;exitDx=0;exitDy=0;" parent="1" source="EPaem3cKH4Gjk8MUm_rs-49" target="EPaem3cKH4Gjk8MUm_rs-51" edge="1">
          <mxGeometry width="50" height="50" relative="1" as="geometry">
            <mxPoint x="490" y="430" as="sourcePoint" />
            <mxPoint x="480" y="418" as="targetPoint" />
            <Array as="points" />
          </mxGeometry>
        </mxCell>
        <mxCell id="EPaem3cKH4Gjk8MUm_rs-55" value="" style="rhombus;whiteSpace=wrap;html=1;rotation=-15;" parent="1" vertex="1">
          <mxGeometry x="187.53999999999996" y="250" width="43.71" height="40.49" as="geometry" />
        </mxCell>
        <mxCell id="EPaem3cKH4Gjk8MUm_rs-64" value="" style="endArrow=none;html=1;rounded=0;exitX=0.697;exitY=-0.003;exitDx=0;exitDy=0;exitPerimeter=0;entryX=0.372;entryY=0.887;entryDx=0;entryDy=0;entryPerimeter=0;" parent="1" source="EPaem3cKH4Gjk8MUm_rs-32" target="EPaem3cKH4Gjk8MUm_rs-55" edge="1">
          <mxGeometry width="50" height="50" relative="1" as="geometry">
            <mxPoint x="210" y="360" as="sourcePoint" />
            <mxPoint x="180" y="290" as="targetPoint" />
          </mxGeometry>
        </mxCell>
        <mxCell id="EPaem3cKH4Gjk8MUm_rs-65" value="" style="endArrow=none;html=1;rounded=0;entryX=0.5;entryY=1;entryDx=0;entryDy=0;exitX=0.75;exitY=0;exitDx=0;exitDy=0;" parent="1" source="EPaem3cKH4Gjk8MUm_rs-32" target="EPaem3cKH4Gjk8MUm_rs-55" edge="1">
          <mxGeometry width="50" height="50" relative="1" as="geometry">
            <mxPoint x="200" y="351" as="sourcePoint" />
            <mxPoint x="197" y="290" as="targetPoint" />
          </mxGeometry>
        </mxCell>
        <mxCell id="EPaem3cKH4Gjk8MUm_rs-66" value="" style="rhombus;whiteSpace=wrap;html=1;rotation=-15;" parent="1" vertex="1">
          <mxGeometry x="198.75000000000006" y="258.13" width="23.43" height="24.22" as="geometry" />
        </mxCell>
        <mxCell id="EPaem3cKH4Gjk8MUm_rs-67" value="" style="endArrow=classic;html=1;rounded=0;exitX=0.5;exitY=0;exitDx=0;exitDy=0;entryX=1;entryY=0.5;entryDx=0;entryDy=0;" parent="1" source="EPaem3cKH4Gjk8MUm_rs-55" target="EPaem3cKH4Gjk8MUm_rs-68" edge="1">
          <mxGeometry width="50" height="50" relative="1" as="geometry">
            <mxPoint x="320" y="280" as="sourcePoint" />
            <mxPoint x="150" y="240" as="targetPoint" />
          </mxGeometry>
        </mxCell>
        <mxCell id="EPaem3cKH4Gjk8MUm_rs-68" value="PROIZVOĐAČ" style="rounded=0;whiteSpace=wrap;html=1;" parent="1" vertex="1">
          <mxGeometry x="50" y="220" width="100" height="40" as="geometry" />
        </mxCell>
        <mxCell id="EPaem3cKH4Gjk8MUm_rs-69" value="&lt;u&gt;ID&lt;/u&gt;" style="ellipse;whiteSpace=wrap;html=1;" parent="1" vertex="1">
          <mxGeometry x="10" y="180" width="50" height="30" as="geometry" />
        </mxCell>
        <mxCell id="EPaem3cKH4Gjk8MUm_rs-70" value="IME" style="ellipse;whiteSpace=wrap;html=1;" parent="1" vertex="1">
          <mxGeometry x="50" y="155" width="60" height="30" as="geometry" />
        </mxCell>
        <mxCell id="EPaem3cKH4Gjk8MUm_rs-73" value="OPIS" style="ellipse;whiteSpace=wrap;html=1;" parent="1" vertex="1">
          <mxGeometry x="108.29" y="170" width="60" height="30" as="geometry" />
        </mxCell>
        <mxCell id="EPaem3cKH4Gjk8MUm_rs-75" value="LOGO" style="ellipse;whiteSpace=wrap;html=1;" parent="1" vertex="1">
          <mxGeometry x="10" y="272.35" width="50" height="18.14" as="geometry" />
        </mxCell>
        <mxCell id="EPaem3cKH4Gjk8MUm_rs-76" value="" style="endArrow=none;html=1;rounded=0;exitX=0;exitY=1;exitDx=0;exitDy=0;" parent="1" source="EPaem3cKH4Gjk8MUm_rs-68" edge="1">
          <mxGeometry width="50" height="50" relative="1" as="geometry">
            <mxPoint x="40" y="260" as="sourcePoint" />
            <mxPoint x="30" y="270" as="targetPoint" />
          </mxGeometry>
        </mxCell>
        <mxCell id="EPaem3cKH4Gjk8MUm_rs-77" value="" style="endArrow=none;html=1;rounded=0;entryX=1;entryY=1;entryDx=0;entryDy=0;" parent="1" source="EPaem3cKH4Gjk8MUm_rs-68" target="EPaem3cKH4Gjk8MUm_rs-69" edge="1">
          <mxGeometry width="50" height="50" relative="1" as="geometry">
            <mxPoint x="80" y="210" as="sourcePoint" />
            <mxPoint x="50" y="170" as="targetPoint" />
          </mxGeometry>
        </mxCell>
        <mxCell id="EPaem3cKH4Gjk8MUm_rs-78" value="" style="endArrow=none;html=1;rounded=0;exitX=0.5;exitY=0;exitDx=0;exitDy=0;" parent="1" source="EPaem3cKH4Gjk8MUm_rs-68" target="EPaem3cKH4Gjk8MUm_rs-70" edge="1">
          <mxGeometry width="50" height="50" relative="1" as="geometry">
            <mxPoint x="80" y="200" as="sourcePoint" />
            <mxPoint x="80" y="190" as="targetPoint" />
          </mxGeometry>
        </mxCell>
        <mxCell id="EPaem3cKH4Gjk8MUm_rs-83" value="" style="endArrow=none;html=1;rounded=0;exitX=0.75;exitY=0;exitDx=0;exitDy=0;entryX=0.5;entryY=1;entryDx=0;entryDy=0;" parent="1" source="EPaem3cKH4Gjk8MUm_rs-68" target="EPaem3cKH4Gjk8MUm_rs-73" edge="1">
          <mxGeometry width="50" height="50" relative="1" as="geometry">
            <mxPoint x="180" y="210" as="sourcePoint" />
            <mxPoint x="166" y="175" as="targetPoint" />
          </mxGeometry>
        </mxCell>
        <mxCell id="EPaem3cKH4Gjk8MUm_rs-90" value="&lt;u&gt;ID&lt;/u&gt;" style="ellipse;whiteSpace=wrap;html=1;" parent="1" vertex="1">
          <mxGeometry x="330" y="200.49" width="60" height="30" as="geometry" />
        </mxCell>
        <mxCell id="EPaem3cKH4Gjk8MUm_rs-91" value="DATUM" style="ellipse;whiteSpace=wrap;html=1;" parent="1" vertex="1">
          <mxGeometry x="310" y="230.49" width="70" height="30" as="geometry" />
        </mxCell>
        <mxCell id="EPaem3cKH4Gjk8MUm_rs-92" value="" style="endArrow=none;html=1;rounded=0;exitX=0.5;exitY=1;exitDx=0;exitDy=0;entryX=0.5;entryY=0;entryDx=0;entryDy=0;" parent="1" source="EPaem3cKH4Gjk8MUm_rs-116" target="EPaem3cKH4Gjk8MUm_rs-123" edge="1">
          <mxGeometry width="50" height="50" relative="1" as="geometry">
            <mxPoint x="410" y="472.5" as="sourcePoint" />
            <mxPoint x="432.5" y="320" as="targetPoint" />
          </mxGeometry>
        </mxCell>
        <mxCell id="EPaem3cKH4Gjk8MUm_rs-110" value="" style="endArrow=none;html=1;rounded=0;entryX=0;entryY=0.5;entryDx=0;entryDy=0;" parent="1" target="EPaem3cKH4Gjk8MUm_rs-116" edge="1">
          <mxGeometry width="50" height="50" relative="1" as="geometry">
            <mxPoint x="370" y="230" as="sourcePoint" />
            <mxPoint x="557.3205080756888" y="297.67949192431126" as="targetPoint" />
          </mxGeometry>
        </mxCell>
        <mxCell id="EPaem3cKH4Gjk8MUm_rs-112" value="" style="endArrow=none;html=1;rounded=0;entryX=0.007;entryY=0.615;entryDx=0;entryDy=0;exitX=1;exitY=1;exitDx=0;exitDy=0;entryPerimeter=0;" parent="1" source="EPaem3cKH4Gjk8MUm_rs-91" target="EPaem3cKH4Gjk8MUm_rs-116" edge="1">
          <mxGeometry width="50" height="50" relative="1" as="geometry">
            <mxPoint x="580" y="320" as="sourcePoint" />
            <mxPoint x="564.6410161513775" y="325" as="targetPoint" />
          </mxGeometry>
        </mxCell>
        <mxCell id="EPaem3cKH4Gjk8MUm_rs-115" value="" style="endArrow=classic;html=1;rounded=0;" parent="1" source="EPaem3cKH4Gjk8MUm_rs-1" edge="1">
          <mxGeometry width="50" height="50" relative="1" as="geometry">
            <mxPoint x="390" y="210" as="sourcePoint" />
            <mxPoint x="480" y="230" as="targetPoint" />
          </mxGeometry>
        </mxCell>
        <mxCell id="EPaem3cKH4Gjk8MUm_rs-116" value="KUPOVINA" style="rounded=0;whiteSpace=wrap;html=1;" parent="1" vertex="1">
          <mxGeometry x="430" y="230.49" width="120" height="60" as="geometry" />
        </mxCell>
        <mxCell id="EPaem3cKH4Gjk8MUm_rs-118" value="NAČIN PLAĆANJA" style="ellipse;whiteSpace=wrap;html=1;" parent="1" vertex="1">
          <mxGeometry x="345" y="167.5" width="80" height="35" as="geometry" />
        </mxCell>
        <mxCell id="EPaem3cKH4Gjk8MUm_rs-119" value="" style="endArrow=none;html=1;rounded=0;entryX=0;entryY=0;entryDx=0;entryDy=0;" parent="1" source="EPaem3cKH4Gjk8MUm_rs-118" target="EPaem3cKH4Gjk8MUm_rs-116" edge="1">
          <mxGeometry width="50" height="50" relative="1" as="geometry">
            <mxPoint x="420" y="210" as="sourcePoint" />
            <mxPoint x="480" y="240" as="targetPoint" />
          </mxGeometry>
        </mxCell>
        <mxCell id="EPaem3cKH4Gjk8MUm_rs-120" value="kartica/pouzećem" style="text;whiteSpace=wrap;html=1;" parent="1" vertex="1">
          <mxGeometry x="245" y="167.5" width="130" height="40" as="geometry" />
        </mxCell>
        <mxCell id="EPaem3cKH4Gjk8MUm_rs-123" value="STAVKA KUPOVINE" style="shape=associativeEntity;whiteSpace=wrap;html=1;align=center;rotation=15;" parent="1" vertex="1">
          <mxGeometry x="425" y="330" width="100.85" height="66.47" as="geometry" />
        </mxCell>
        <mxCell id="EPaem3cKH4Gjk8MUm_rs-124" value="" style="endArrow=classic;html=1;rounded=0;entryX=1;entryY=0.5;entryDx=0;entryDy=0;exitX=0.5;exitY=1;exitDx=0;exitDy=0;" parent="1" source="EPaem3cKH4Gjk8MUm_rs-123" target="EPaem3cKH4Gjk8MUm_rs-32" edge="1">
          <mxGeometry width="50" height="50" relative="1" as="geometry">
            <mxPoint x="470" y="400" as="sourcePoint" />
            <mxPoint x="440" y="240" as="targetPoint" />
          </mxGeometry>
        </mxCell>
        <mxCell id="EPaem3cKH4Gjk8MUm_rs-125" value="&lt;u&gt;ID&lt;/u&gt;" style="ellipse;whiteSpace=wrap;html=1;" parent="1" vertex="1">
          <mxGeometry x="560" y="320" width="60" height="30" as="geometry" />
        </mxCell>
        <mxCell id="EPaem3cKH4Gjk8MUm_rs-127" value="KOLIČINA" style="ellipse;whiteSpace=wrap;html=1;" parent="1" vertex="1">
          <mxGeometry x="570" y="356.47" width="80" height="40" as="geometry" />
        </mxCell>
        <mxCell id="EPaem3cKH4Gjk8MUm_rs-128" value="" style="endArrow=none;html=1;rounded=0;entryX=0;entryY=1;entryDx=0;entryDy=0;exitX=0.978;exitY=0.408;exitDx=0;exitDy=0;exitPerimeter=0;" parent="1" source="EPaem3cKH4Gjk8MUm_rs-123" target="EPaem3cKH4Gjk8MUm_rs-125" edge="1">
          <mxGeometry width="50" height="50" relative="1" as="geometry">
            <mxPoint x="560" y="350" as="sourcePoint" />
            <mxPoint x="621" y="361" as="targetPoint" />
          </mxGeometry>
        </mxCell>
        <mxCell id="EPaem3cKH4Gjk8MUm_rs-129" value="" style="endArrow=none;html=1;rounded=0;entryX=0;entryY=1;entryDx=0;entryDy=0;exitX=1;exitY=0.75;exitDx=0;exitDy=0;" parent="1" source="EPaem3cKH4Gjk8MUm_rs-123" target="EPaem3cKH4Gjk8MUm_rs-127" edge="1">
          <mxGeometry width="50" height="50" relative="1" as="geometry">
            <mxPoint x="550" y="400" as="sourcePoint" />
            <mxPoint x="595" y="376" as="targetPoint" />
          </mxGeometry>
        </mxCell>
      </root>
    </mxGraphModel>
  </diagram>
</mxfile>
